<?xml version="1.0" encoding="UTF-8" standalone="no"?>
<!-- Created with Inkscape (http://www.inkscape.org/) -->

<svg
   width="310mm"
   height="155.88457mm"
   viewBox="0 0 310 155.88457"
   version="1.1"
   id="svg8"
   inkscape:version="1.2.1 (9c6d41e410, 2022-07-14, custom)"
   sodipodi:docname="logo.svg"
   xmlns:inkscape="http://www.inkscape.org/namespaces/inkscape"
   xmlns:sodipodi="http://sodipodi.sourceforge.net/DTD/sodipodi-0.dtd"
   xmlns="http://www.w3.org/2000/svg"
   xmlns:svg="http://www.w3.org/2000/svg"
   xmlns:rdf="http://www.w3.org/1999/02/22-rdf-syntax-ns#"
   xmlns:cc="http://creativecommons.org/ns#"
   xmlns:dc="http://purl.org/dc/elements/1.1/"
   xmlns:osb="http://www.openswatchbook.org/uri/2009/osb">
  <defs
     id="defs2">
    <linearGradient
       id="linearGradient2415"
       osb:paint="solid">
      <stop
         style="stop-color:#c8ab37;stop-opacity:1;"
         offset="0"
         id="stop2413" />
    </linearGradient>
    <linearGradient
       id="linearGradient953"
       osb:paint="solid">
      <stop
         style="stop-color:#c8ab37;stop-opacity:1;"
         offset="0"
         id="stop951" />
    </linearGradient>
    <linearGradient
       id="linearGradient947"
       osb:paint="solid">
      <stop
         style="stop-color:#000000;stop-opacity:1;"
         offset="0"
         id="stop945" />
    </linearGradient>
  </defs>
  <sodipodi:namedview
     id="base"
     pagecolor="#ffffff"
     bordercolor="#666666"
     borderopacity="1.0"
     inkscape:pageopacity="0.0"
     inkscape:pageshadow="2"
     inkscape:zoom="0.47584683"
     inkscape:cx="583.17085"
     inkscape:cy="287.90777"
     inkscape:document-units="mm"
     inkscape:current-layer="layer1"
     showgrid="false"
     inkscape:measure-start="249.286,353.571"
     inkscape:measure-end="298.214,397.5"
     inkscape:window-width="1280"
     inkscape:window-height="651"
     inkscape:window-x="0"
     inkscape:window-y="32"
     inkscape:window-maximized="1"
     inkscape:pagecheckerboard="false"
     inkscape:showpageshadow="2"
     inkscape:deskcolor="#d1d1d1" />
  <metadata
     id="metadata5">
    <rdf:RDF>
      <cc:Work
         rdf:about="">
        <dc:format>image/svg+xml</dc:format>
        <dc:type
           rdf:resource="http://purl.org/dc/dcmitype/StillImage" />
      </cc:Work>
    </rdf:RDF>
  </metadata>
  <g
     inkscape:label="Layer 1"
     inkscape:groupmode="layer"
     id="layer1"
     transform="translate(0,-141.11543)">
    <rect
       style="fill:#ffcc00;fill-opacity:1;stroke:none;stroke-width:0.21603075;stroke-opacity:1"
       id="rect817"
       width="17.999943"
       height="17.999943"
       x="162.47223"
       y="223.94641"
       ry="2.4494829"
       rx="2.4494829"
       transform="matrix(1,0,-0.5,0.8660254,0,0)" />
    <rect
       style="fill:#ffcc00;fill-opacity:1;stroke:none;stroke-width:0.21603075;stroke-opacity:1"
       id="rect817-5"
       width="17.999945"
       height="17.999943"
       x="162.47223"
       y="243.94635"
       ry="2.4494829"
       rx="2.4494829"
       transform="matrix(1,0,-0.5,0.8660254,0,0)" />
    <rect
       style="fill:#ffcc00;fill-opacity:1;stroke:none;stroke-width:0.21603075;stroke-opacity:1"
       id="rect817-5-3"
       width="17.999945"
       height="17.999943"
       x="162.47224"
       y="263.94629"
       ry="2.4494829"
       rx="2.4494829"
       transform="matrix(1,0,-0.5,0.8660254,0,0)" />
    <rect
       style="fill:#ffcc00;fill-opacity:1;stroke:none;stroke-width:0.21603075;stroke-opacity:1"
       id="rect817-5-3-7"
       width="17.999945"
       height="17.999943"
       x="162.47223"
       y="283.94623"
       ry="2.4494829"
       rx="2.4494829"
       transform="matrix(1,0,-0.5,0.8660254,0,0)" />
    <rect
       style="fill:#ffcc00;fill-opacity:1;stroke:none;stroke-width:0.21603075;stroke-opacity:1"
       id="rect817-5-3-7-8"
       width="17.999945"
       height="17.999943"
       x="162.47223"
       y="303.9462"
       ry="2.4494829"
       rx="2.4494829"
       transform="matrix(1,0,-0.5,0.8660254,0,0)" />
    <rect
       style="fill:#ffcc00;fill-opacity:1;stroke:none;stroke-width:0.21603075;stroke-opacity:1"
       id="rect817-5-3-7-8-7"
       width="17.999945"
       height="17.999943"
       x="182.47217"
       y="223.94641"
       ry="2.4494829"
       rx="2.4494829"
       transform="matrix(1,0,-0.5,0.8660254,0,0)" />
    <rect
       style="fill:#ffcc00;fill-opacity:1;stroke:none;stroke-width:0.21603075;stroke-opacity:1"
       id="rect817-5-3-7-8-7-2"
       width="17.999945"
       height="17.999943"
       x="202.47212"
       y="223.94641"
       ry="2.4494829"
       rx="2.4494829"
       transform="matrix(1,0,-0.5,0.8660254,0,0)" />
    <rect
       style="fill:#ffcc00;fill-opacity:1;stroke:none;stroke-width:0.21603075;stroke-opacity:1"
       id="rect817-5-5"
       width="17.999945"
       height="17.999943"
       x="202.47212"
       y="243.94635"
       ry="2.4494829"
       rx="2.4494829"
       transform="matrix(1,0,-0.5,0.8660254,0,0)" />
    <path
       style="color:#000000;font-style:normal;font-variant:normal;font-weight:normal;font-stretch:normal;font-size:medium;line-height:normal;font-family:sans-serif;font-variant-ligatures:normal;font-variant-position:normal;font-variant-caps:normal;font-variant-numeric:normal;font-variant-alternates:normal;font-feature-settings:normal;text-indent:0;text-align:start;text-decoration:none;text-decoration-line:none;text-decoration-style:solid;text-decoration-color:#000000;letter-spacing:normal;word-spacing:normal;text-transform:none;writing-mode:lr-tb;direction:ltr;text-orientation:mixed;dominant-baseline:auto;baseline-shift:baseline;text-anchor:start;white-space:normal;shape-padding:0;clip-rule:nonzero;display:inline;overflow:visible;visibility:visible;opacity:1;isolation:auto;mix-blend-mode:normal;color-interpolation:sRGB;color-interpolation-filters:linearRGB;solid-color:#000000;solid-opacity:1;vector-effect:none;fill:#987a00;fill-opacity:1;fill-rule:nonzero;stroke:none;stroke-width:2.99999142;stroke-linecap:round;stroke-linejoin:round;stroke-miterlimit:4;stroke-dasharray:none;stroke-dashoffset:0;stroke-opacity:1;color-rendering:auto;image-rendering:auto;shape-rendering:auto;text-rendering:auto;enable-background:accumulate"
       d="m 59.744138,213.62647 c -0.506753,0.0275 -0.965249,0.30933 -1.218592,0.74906 l -5.890897,10.22853 c -0.576047,1.00064 0.146927,2.24968 1.301537,2.24858 l 11.803447,-0.0127 c 1.154549,-0.001 1.874744,-1.25201 1.296587,-2.25136 l -5.912551,-10.21583 c -0.282823,-0.48848 -0.815907,-0.77686 -1.379531,-0.74628 z"
       id="path854-2"
       inkscape:connector-curvature="0"
       sodipodi:nodetypes="cccccccc" />
    <path
       style="color:#000000;font-style:normal;font-variant:normal;font-weight:normal;font-stretch:normal;font-size:medium;line-height:normal;font-family:sans-serif;font-variant-ligatures:normal;font-variant-position:normal;font-variant-caps:normal;font-variant-numeric:normal;font-variant-alternates:normal;font-feature-settings:normal;text-indent:0;text-align:start;text-decoration:none;text-decoration-line:none;text-decoration-style:solid;text-decoration-color:#000000;letter-spacing:normal;word-spacing:normal;text-transform:none;writing-mode:lr-tb;direction:ltr;text-orientation:mixed;dominant-baseline:auto;baseline-shift:baseline;text-anchor:start;white-space:normal;shape-padding:0;clip-rule:nonzero;display:inline;overflow:visible;visibility:visible;opacity:1;isolation:auto;mix-blend-mode:normal;color-interpolation:sRGB;color-interpolation-filters:linearRGB;solid-color:#000000;solid-opacity:1;vector-effect:none;fill:#cca200;fill-opacity:1;fill-rule:nonzero;stroke:none;stroke-width:2.99999142;stroke-linecap:round;stroke-linejoin:round;stroke-miterlimit:4;stroke-dasharray:none;stroke-dashoffset:0;stroke-opacity:1;color-rendering:auto;image-rendering:auto;shape-rendering:auto;text-rendering:auto;enable-background:accumulate"
       d="m 77.321451,211.94518 c -0.277189,-0.4251 -0.750518,-0.68126 -1.258016,-0.6808 l -11.803606,0.0126 c -1.154607,0.001 -1.874815,1.25209 -1.296557,2.25146 l 5.912723,10.21573 c 0.578139,0.99936 2.021635,0.99757 2.598023,-0.003 l 5.890893,-10.22833 c 0.281629,-0.48918 0.264829,-1.09503 -0.0435,-1.56786 z"
       id="path854-2-0"
       inkscape:connector-curvature="0"
       sodipodi:nodetypes="cccccccc" />
    <rect
       style="fill:#ffcc00;fill-opacity:1;stroke:none;stroke-width:0.21603075;stroke-opacity:1"
       id="rect817-5-3-5"
       width="17.999945"
       height="17.999943"
       x="182.47217"
       y="263.94629"
       ry="2.4494829"
       rx="2.4494829"
       transform="matrix(1,0,-0.5,0.8660254,0,0)" />
    <rect
       style="fill:#ffcc00;fill-opacity:1;stroke:none;stroke-width:0.21603075;stroke-opacity:1"
       id="rect817-5-3-5-0"
       width="17.999945"
       height="17.999943"
       x="202.47212"
       y="263.94629"
       ry="2.4494829"
       rx="2.4494829"
       transform="matrix(1,0,-0.5,0.8660254,0,0)" />
    <rect
       style="fill:#cca400;fill-opacity:1;stroke:none;stroke-width:0.21603075;stroke-opacity:1"
       id="rect817-5-3-5-0-3"
       width="17.999945"
       height="17.999943"
       x="-160.47391"
       y="-341.94608"
       ry="2.4494829"
       rx="2.4494829"
       transform="matrix(1,0,-0.5,-0.8660254,0,0)" />
    <rect
       style="fill:#987a00;fill-opacity:1;stroke:none;stroke-width:0.21603075;stroke-opacity:1"
       id="rect817-5-3-7-8-9"
       width="17.999945"
       height="17.999943"
       x="-140.47421"
       y="182.4724"
       ry="2.4494829"
       rx="2.4494829"
       transform="matrix(0.5,-0.8660254,0.5,0.8660254,0,0)" />
    <rect
       style="fill:#987a00;fill-opacity:1;stroke:none;stroke-width:0.21603075;stroke-opacity:1"
       id="rect817-5-3-7-8-9-6"
       width="17.999945"
       height="17.999943"
       x="-120.47425"
       y="182.47238"
       ry="2.4494829"
       rx="2.4494829"
       transform="matrix(0.5,-0.8660254,0.5,0.8660254,0,0)" />
    <rect
       style="fill:#cca400;fill-opacity:1;stroke:none;stroke-width:0.21603075;stroke-opacity:1"
       id="rect817-5-3-7-8-9-6-7"
       width="17.999945"
       height="17.999943"
       x="-301.9462"
       y="-100.47408"
       ry="2.4494829"
       rx="2.4494829"
       transform="matrix(-0.5,-0.8660254,1,0,0,0)" />
    <rect
       style="fill:#cca200;fill-opacity:1;stroke:none;stroke-width:0.21603075;stroke-opacity:1"
       id="rect817-5-3-7-8-9-6-7-6"
       width="17.999945"
       height="17.999945"
       x="-301.9462"
       y="-80.474121"
       ry="2.4494829"
       rx="2.4494829"
       transform="matrix(-0.5,-0.8660254,1,0,0,0)" />
    <rect
       style="fill:#0080ff;fill-opacity:1;stroke:none;stroke-width:0.21603075;stroke-opacity:1"
       id="rect817-5-3-7-8-9-6-4"
       width="17.999945"
       height="17.999943"
       x="-60.474434"
       y="222.47227"
       ry="2.4494829"
       rx="2.4494829"
       transform="matrix(0.5,-0.8660254,0.5,0.8660254,0,0)" />
    <rect
       style="fill:#0080ff;fill-opacity:1;stroke:none;stroke-width:0.21603075;stroke-opacity:1"
       id="rect817-5-3-7-8-9-6-4-5"
       width="17.999945"
       height="17.999943"
       x="-40.474491"
       y="222.47227"
       ry="2.4494829"
       rx="2.4494829"
       transform="matrix(0.5,-0.8660254,0.5,0.8660254,0,0)" />
    <rect
       style="fill:#0080ff;fill-opacity:1;stroke:none;stroke-width:0.21603075;stroke-opacity:1"
       id="rect817-5-3-7-8-9-6-4-5-1"
       width="17.999945"
       height="17.999943"
       x="-20.474548"
       y="222.47229"
       ry="2.4494829"
       rx="2.4494829"
       transform="matrix(0.5,-0.8660254,0.5,0.8660254,0,0)" />
    <rect
       style="fill:#0080ff;fill-opacity:1;stroke:none;stroke-width:0.21603075;stroke-opacity:1"
       id="rect817-5-3-7-8-9-6-4-5-1-8"
       width="17.999945"
       height="17.999943"
       x="-20.474548"
       y="242.47223"
       ry="2.4494829"
       rx="2.4494829"
       transform="matrix(0.5,-0.8660254,0.5,0.8660254,0,0)" />
    <rect
       style="fill:#0080ff;fill-opacity:1;stroke:none;stroke-width:0.21603075;stroke-opacity:1"
       id="rect817-5-3-7-8-9-6-4-51"
       width="17.999945"
       height="17.999943"
       x="-0.47460413"
       y="242.47223"
       ry="2.4494829"
       rx="2.4494829"
       transform="matrix(0.5,-0.8660254,0.5,0.8660254,0,0)" />
    <rect
       style="fill:#0080ff;fill-opacity:1;stroke:none;stroke-width:0.21603075;stroke-opacity:1"
       id="rect817-5-3-7-8-9-6-4-51-8"
       width="17.999945"
       height="17.999943"
       x="-0.47460413"
       y="262.47217"
       ry="2.4494829"
       rx="2.4494829"
       transform="matrix(0.5,-0.8660254,0.5,0.8660254,0,0)" />
    <rect
       style="fill:#0080ff;fill-opacity:1;stroke:none;stroke-width:0.21603075;stroke-opacity:1"
       id="rect817-5-3-7-8-9-6-4-51-8-8"
       width="17.999945"
       height="17.999943"
       x="-0.47460413"
       y="282.47211"
       ry="2.4494829"
       rx="2.4494829"
       transform="matrix(0.5,-0.8660254,0.5,0.8660254,0,0)" />
    <rect
       transform="matrix(1,0,-0.5,0.8660254,0,0)"
       rx="2.4494829"
       ry="2.4494829"
       y="283.94623"
       x="242.472"
       height="17.999943"
       width="17.999945"
       id="rect1128"
       style="fill:#0066cc;fill-opacity:1;stroke:none;stroke-width:0.21603075;stroke-opacity:1" />
    <rect
       style="fill:#0066cc;fill-opacity:1;stroke:none;stroke-width:0.21603075;stroke-opacity:1"
       id="rect1130"
       width="17.999945"
       height="17.999943"
       x="302.4718"
       y="283.94623"
       ry="2.4494829"
       rx="2.4494829"
       transform="matrix(1,0,-0.5,0.8660254,0,0)" />
    <path
       style="color:#000000;font-style:normal;font-variant:normal;font-weight:normal;font-stretch:normal;font-size:medium;line-height:normal;font-family:sans-serif;font-variant-ligatures:normal;font-variant-position:normal;font-variant-caps:normal;font-variant-numeric:normal;font-variant-alternates:normal;font-feature-settings:normal;text-indent:0;text-align:start;text-decoration:none;text-decoration-line:none;text-decoration-style:solid;text-decoration-color:#000000;letter-spacing:normal;word-spacing:normal;text-transform:none;writing-mode:lr-tb;direction:ltr;text-orientation:mixed;dominant-baseline:auto;baseline-shift:baseline;text-anchor:start;white-space:normal;shape-padding:0;clip-rule:nonzero;display:inline;overflow:visible;visibility:visible;opacity:1;isolation:auto;mix-blend-mode:normal;color-interpolation:sRGB;color-interpolation-filters:linearRGB;solid-color:#000000;solid-opacity:1;vector-effect:none;fill:#0066cc;fill-opacity:1;fill-rule:nonzero;stroke:none;stroke-width:2.99999142;stroke-linecap:round;stroke-linejoin:round;stroke-miterlimit:4;stroke-dasharray:none;stroke-dashoffset:0;stroke-opacity:1;color-rendering:auto;image-rendering:auto;shape-rendering:auto;text-rendering:auto;enable-background:accumulate"
       d="m 109.74399,230.94645 c -0.50675,0.0275 -0.96525,0.30933 -1.21859,0.74906 l -5.8909,10.22853 c -0.57604,1.00064 0.14693,2.24967 1.30154,2.24857 l 11.80344,-0.0127 c 1.15455,-0.001 1.87475,-1.252 1.29659,-2.25135 l -5.91255,-10.21583 c -0.28282,-0.48848 -0.8159,-0.77686 -1.37953,-0.74628 z"
       id="path854-7"
       inkscape:connector-curvature="0"
       sodipodi:nodetypes="cccccccc" />
    <path
       sodipodi:nodetypes="cccccccc"
       inkscape:connector-curvature="0"
       id="path1147"
       d="m 129.74393,230.94645 c -0.50674,0.0275 -0.96524,0.30933 -1.21859,0.74906 l -5.89089,10.22853 c -0.57605,1.00064 0.14692,2.24967 1.30153,2.24857 l 11.80345,-0.0127 c 1.15454,-0.001 1.87474,-1.252 1.29658,-2.25135 l -5.91255,-10.21583 c -0.28282,-0.48848 -0.8159,-0.77686 -1.37953,-0.74628 z"
       style="color:#000000;font-style:normal;font-variant:normal;font-weight:normal;font-stretch:normal;font-size:medium;line-height:normal;font-family:sans-serif;font-variant-ligatures:normal;font-variant-position:normal;font-variant-caps:normal;font-variant-numeric:normal;font-variant-alternates:normal;font-feature-settings:normal;text-indent:0;text-align:start;text-decoration:none;text-decoration-line:none;text-decoration-style:solid;text-decoration-color:#000000;letter-spacing:normal;word-spacing:normal;text-transform:none;writing-mode:lr-tb;direction:ltr;text-orientation:mixed;dominant-baseline:auto;baseline-shift:baseline;text-anchor:start;white-space:normal;shape-padding:0;clip-rule:nonzero;display:inline;overflow:visible;visibility:visible;opacity:1;isolation:auto;mix-blend-mode:normal;color-interpolation:sRGB;color-interpolation-filters:linearRGB;solid-color:#000000;solid-opacity:1;vector-effect:none;fill:#0066cc;fill-opacity:1;fill-rule:nonzero;stroke:none;stroke-width:2.99999142;stroke-linecap:round;stroke-linejoin:round;stroke-miterlimit:4;stroke-dasharray:none;stroke-dashoffset:0;stroke-opacity:1;color-rendering:auto;image-rendering:auto;shape-rendering:auto;text-rendering:auto;enable-background:accumulate" />
    <path
       sodipodi:nodetypes="cccccccc"
       inkscape:connector-curvature="0"
       id="path1151"
       d="m 127.3213,194.62423 c -0.27719,-0.4251 -0.75052,-0.68126 -1.25801,-0.6808 l -11.80361,0.0126 c -1.15461,0.001 -1.87482,1.25209 -1.29656,2.25146 l 5.91273,10.21573 c 0.57813,0.99936 2.02163,0.99757 2.59802,-0.003 l 5.89089,-10.22833 c 0.28163,-0.48918 0.26483,-1.09503 -0.0435,-1.56786 z"
       style="color:#000000;font-style:normal;font-variant:normal;font-weight:normal;font-stretch:normal;font-size:medium;line-height:normal;font-family:sans-serif;font-variant-ligatures:normal;font-variant-position:normal;font-variant-caps:normal;font-variant-numeric:normal;font-variant-alternates:normal;font-feature-settings:normal;text-indent:0;text-align:start;text-decoration:none;text-decoration-line:none;text-decoration-style:solid;text-decoration-color:#000000;letter-spacing:normal;word-spacing:normal;text-transform:none;writing-mode:lr-tb;direction:ltr;text-orientation:mixed;dominant-baseline:auto;baseline-shift:baseline;text-anchor:start;white-space:normal;shape-padding:0;clip-rule:nonzero;display:inline;overflow:visible;visibility:visible;opacity:1;isolation:auto;mix-blend-mode:normal;color-interpolation:sRGB;color-interpolation-filters:linearRGB;solid-color:#000000;solid-opacity:1;vector-effect:none;fill:#004d99;fill-opacity:1;fill-rule:nonzero;stroke:none;stroke-width:2.99999142;stroke-linecap:round;stroke-linejoin:round;stroke-miterlimit:4;stroke-dasharray:none;stroke-dashoffset:0;stroke-opacity:1;color-rendering:auto;image-rendering:auto;shape-rendering:auto;text-rendering:auto;enable-background:accumulate" />
    <rect
       transform="matrix(-0.5,-0.8660254,1,0,0,0)"
       rx="2.4494829"
       ry="2.4494829"
       y="19.525597"
       x="-281.94626"
       height="17.999943"
       width="17.999945"
       id="rect1153"
       style="fill:#004d99;fill-opacity:1;stroke:none;stroke-width:0.21603075;stroke-opacity:1" />
    <rect
       style="fill:#004d99;fill-opacity:1;stroke:none;stroke-width:0.21603075;stroke-opacity:1"
       id="rect1164"
       width="17.999945"
       height="17.999943"
       x="-261.94632"
       y="19.525597"
       ry="2.4494829"
       rx="2.4494829"
       transform="matrix(-0.5,-0.8660254,1,0,0,0)" />
    <rect
       transform="matrix(-0.5,-0.8660254,1,0,0,0)"
       rx="2.4494829"
       ry="2.4494829"
       y="19.525597"
       x="-241.94637"
       height="17.999943"
       width="17.999945"
       id="rect1166"
       style="fill:#004d99;fill-opacity:1;stroke:none;stroke-width:0.21603075;stroke-opacity:1" />
    <rect
       transform="matrix(-1,0,0.5,-0.8660254,0,0)"
       rx="2.4494829"
       ry="2.4494829"
       y="-281.94626"
       x="-400.47409"
       height="17.999943"
       width="17.999943"
       id="rect1168"
       style="fill:#ffcc00;fill-opacity:1;stroke:none;stroke-width:0.21603075;stroke-opacity:1" />
    <rect
       transform="matrix(-1,0,0.5,-0.8660254,0,0)"
       rx="2.4494829"
       ry="2.4494829"
       y="-261.94644"
       x="-400.47409"
       height="17.999943"
       width="17.999945"
       id="rect1170"
       style="fill:#ffcc00;fill-opacity:1;stroke:none;stroke-width:0.21603075;stroke-opacity:1" />
    <rect
       transform="matrix(-1,0,0.5,-0.8660254,0,0)"
       rx="2.4494829"
       ry="2.4494829"
       y="-241.94649"
       x="-400.47409"
       height="17.999943"
       width="17.999945"
       id="rect1172"
       style="fill:#ffcc00;fill-opacity:1;stroke:none;stroke-width:0.21603075;stroke-opacity:1" />
    <rect
       transform="matrix(-1,0,0.5,-0.8660254,0,0)"
       rx="2.4494829"
       ry="2.4494829"
       y="-221.94655"
       x="-400.47409"
       height="17.999943"
       width="17.999945"
       id="rect1174"
       style="fill:#ffcc00;fill-opacity:1;stroke:none;stroke-width:0.21603075;stroke-opacity:1" />
    <rect
       transform="matrix(-1,0,0.5,-0.8660254,0,0)"
       rx="2.4494829"
       ry="2.4494829"
       y="-201.94658"
       x="-400.47415"
       height="17.999943"
       width="17.999945"
       id="rect1176"
       style="fill:#ffcc00;fill-opacity:1;stroke:none;stroke-width:0.21603075;stroke-opacity:1" />
    <rect
       transform="matrix(-1,0,0.5,-0.8660254,0,0)"
       rx="2.4494829"
       ry="2.4494829"
       y="-281.94626"
       x="-380.4736"
       height="17.999943"
       width="17.999945"
       id="rect1178"
       style="fill:#ffcc00;fill-opacity:1;stroke:none;stroke-width:0.21603075;stroke-opacity:1" />
    <rect
       transform="matrix(-1,0,0.5,-0.8660254,0,0)"
       rx="2.4494829"
       ry="2.4494829"
       y="-281.94626"
       x="-360.47305"
       height="17.999943"
       width="17.999945"
       id="rect1180"
       style="fill:#ffcc00;fill-opacity:1;stroke:none;stroke-width:0.21603075;stroke-opacity:1" />
    <rect
       transform="matrix(-1,0,0.5,-0.8660254,0,0)"
       rx="2.4494829"
       ry="2.4494829"
       y="-261.94644"
       x="-360.47305"
       height="17.999943"
       width="17.999945"
       id="rect1182"
       style="fill:#ffcc00;fill-opacity:1;stroke:none;stroke-width:0.21603075;stroke-opacity:1" />
    <path
       sodipodi:nodetypes="cccccccc"
       inkscape:connector-curvature="0"
       id="path1184"
       d="m 250.25504,224.48812 c 0.50676,-0.0275 0.96526,-0.30933 1.21861,-0.74907 l 5.89092,-10.22852 c 0.57605,-1.00065 -0.14693,-2.24969 -1.30155,-2.24859 l -11.8035,0.0127 c -1.15456,0.001 -1.87476,1.25201 -1.2966,2.25137 l 5.91258,10.21582 c 0.28282,0.48849 0.81591,0.77687 1.37954,0.74629 z"
       style="color:#000000;font-style:normal;font-variant:normal;font-weight:normal;font-stretch:normal;font-size:medium;line-height:normal;font-family:sans-serif;font-variant-ligatures:normal;font-variant-position:normal;font-variant-caps:normal;font-variant-numeric:normal;font-variant-alternates:normal;font-feature-settings:normal;text-indent:0;text-align:start;text-decoration:none;text-decoration-line:none;text-decoration-style:solid;text-decoration-color:#000000;letter-spacing:normal;word-spacing:normal;text-transform:none;writing-mode:lr-tb;direction:ltr;text-orientation:mixed;dominant-baseline:auto;baseline-shift:baseline;text-anchor:start;white-space:normal;shape-padding:0;clip-rule:nonzero;display:inline;overflow:visible;visibility:visible;opacity:1;isolation:auto;mix-blend-mode:normal;color-interpolation:sRGB;color-interpolation-filters:linearRGB;solid-color:#000000;solid-opacity:1;vector-effect:none;fill:#987a00;fill-opacity:1;fill-rule:nonzero;stroke:none;stroke-width:2.99999142;stroke-linecap:round;stroke-linejoin:round;stroke-miterlimit:4;stroke-dasharray:none;stroke-dashoffset:0;stroke-opacity:1;color-rendering:auto;image-rendering:auto;shape-rendering:auto;text-rendering:auto;enable-background:accumulate" />
    <path
       sodipodi:nodetypes="cccccccc"
       inkscape:connector-curvature="0"
       id="path1186"
       d="m 232.67763,226.1694 c 0.27719,0.4251 0.75052,0.68126 1.25803,0.6808 l 11.80366,-0.0126 c 1.15462,-0.001 1.87483,-1.25209 1.29657,-2.25145 l -5.91276,-10.21574 c -0.57814,-0.99936 -2.02165,-0.99757 -2.59804,0.003 l -5.89092,10.22834 c -0.28163,0.48917 -0.26483,1.09502 0.0435,1.56785 z"
       style="color:#000000;font-style:normal;font-variant:normal;font-weight:normal;font-stretch:normal;font-size:medium;line-height:normal;font-family:sans-serif;font-variant-ligatures:normal;font-variant-position:normal;font-variant-caps:normal;font-variant-numeric:normal;font-variant-alternates:normal;font-feature-settings:normal;text-indent:0;text-align:start;text-decoration:none;text-decoration-line:none;text-decoration-style:solid;text-decoration-color:#000000;letter-spacing:normal;word-spacing:normal;text-transform:none;writing-mode:lr-tb;direction:ltr;text-orientation:mixed;dominant-baseline:auto;baseline-shift:baseline;text-anchor:start;white-space:normal;shape-padding:0;clip-rule:nonzero;display:inline;overflow:visible;visibility:visible;opacity:1;isolation:auto;mix-blend-mode:normal;color-interpolation:sRGB;color-interpolation-filters:linearRGB;solid-color:#000000;solid-opacity:1;vector-effect:none;fill:#cca200;fill-opacity:1;fill-rule:nonzero;stroke:none;stroke-width:2.99999142;stroke-linecap:round;stroke-linejoin:round;stroke-miterlimit:4;stroke-dasharray:none;stroke-dashoffset:0;stroke-opacity:1;color-rendering:auto;image-rendering:auto;shape-rendering:auto;text-rendering:auto;enable-background:accumulate" />
    <rect
       transform="matrix(-1,0,0.5,-0.8660254,0,0)"
       rx="2.4494829"
       ry="2.4494829"
       y="-241.94649"
       x="-380.4736"
       height="17.999943"
       width="17.999945"
       id="rect1188"
       style="fill:#ffcc00;fill-opacity:1;stroke:none;stroke-width:0.21603075;stroke-opacity:1" />
    <rect
       transform="matrix(-1,0,0.5,-0.8660254,0,0)"
       rx="2.4494829"
       ry="2.4494829"
       y="-241.94649"
       x="-360.47305"
       height="17.999943"
       width="17.999945"
       id="rect1190"
       style="fill:#ffcc00;fill-opacity:1;stroke:none;stroke-width:0.21603075;stroke-opacity:1" />
    <rect
       transform="matrix(-1,0,0.5,0.8660254,0,0)"
       rx="2.4494829"
       ry="2.4494829"
       y="163.94669"
       x="-217.52757"
       height="17.999943"
       width="17.999945"
       id="rect1192"
       style="fill:#cca200;fill-opacity:1;stroke:none;stroke-width:0.21603075;stroke-opacity:1" />
    <rect
       transform="matrix(-0.5,0.8660254,-0.5,-0.8660254,0,0)"
       rx="2.4494829"
       ry="2.4494829"
       y="-380.47339"
       x="-197.52779"
       height="17.999943"
       width="17.999945"
       id="rect1194"
       style="fill:#987a00;fill-opacity:1;stroke:none;stroke-width:0.21603075;stroke-opacity:1" />
    <rect
       transform="matrix(-0.5,0.8660254,-0.5,-0.8660254,0,0)"
       rx="2.4494829"
       ry="2.4494829"
       y="-380.47339"
       x="-177.52803"
       height="17.999943"
       width="17.999945"
       id="rect1196"
       style="fill:#987a00;fill-opacity:1;stroke:none;stroke-width:0.21603075;stroke-opacity:1" />
    <rect
       transform="matrix(0.5,0.8660254,-1,0,0,0)"
       rx="2.4494829"
       ry="2.4494829"
       y="-157.52815"
       x="203.94659"
       height="17.999943"
       width="17.999945"
       id="rect1198"
       style="fill:#cca200;fill-opacity:1;stroke:none;stroke-width:0.21603075;stroke-opacity:1" />
    <rect
       transform="matrix(0.5,0.8660254,-1,0,0,0)"
       rx="2.4494829"
       ry="2.4494829"
       y="-137.5285"
       x="203.94659"
       height="17.999945"
       width="17.999945"
       id="rect1200"
       style="fill:#cca200;fill-opacity:1;stroke:none;stroke-width:0.21603075;stroke-opacity:1" />
    <rect
       transform="matrix(-0.5,0.8660254,-0.5,-0.8660254,0,0)"
       rx="2.4494829"
       ry="2.4494829"
       y="-340.47235"
       x="-117.52903"
       height="17.999943"
       width="17.999945"
       id="rect1202"
       style="fill:#0080ff;fill-opacity:1;stroke:none;stroke-width:0.21603075;stroke-opacity:1" />
    <rect
       transform="matrix(-0.5,0.8660254,-0.5,-0.8660254,0,0)"
       rx="2.4494829"
       ry="2.4494829"
       y="-340.47235"
       x="-97.529266"
       height="17.999943"
       width="17.999945"
       id="rect1204"
       style="fill:#0080ff;fill-opacity:1;stroke:none;stroke-width:0.21603075;stroke-opacity:1" />
    <rect
       transform="matrix(-0.5,0.8660254,-0.5,-0.8660254,0,0)"
       rx="2.4494829"
       ry="2.4494829"
       y="-340.47232"
       x="-77.529579"
       height="17.999943"
       width="17.999945"
       id="rect1206"
       style="fill:#0080ff;fill-opacity:1;stroke:none;stroke-width:0.21603075;stroke-opacity:1" />
    <rect
       transform="matrix(-0.5,0.8660254,-0.5,-0.8660254,0,0)"
       rx="2.4494829"
       ry="2.4494829"
       y="-320.4718"
       x="-77.529579"
       height="17.999943"
       width="17.999945"
       id="rect1208"
       style="fill:#0080ff;fill-opacity:1;stroke:none;stroke-width:0.21603075;stroke-opacity:1" />
    <rect
       transform="matrix(-0.5,0.8660254,-0.5,-0.8660254,0,0)"
       rx="2.4494829"
       ry="2.4494829"
       y="-320.4718"
       x="-57.529793"
       height="17.999943"
       width="17.999945"
       id="rect1210"
       style="fill:#0080ff;fill-opacity:1;stroke:none;stroke-width:0.21603075;stroke-opacity:1" />
    <rect
       transform="matrix(-0.5,0.8660254,-0.5,-0.8660254,0,0)"
       rx="2.4494829"
       ry="2.4494829"
       y="-300.47186"
       x="-57.529793"
       height="17.999943"
       width="17.999945"
       id="rect1212"
       style="fill:#0080ff;fill-opacity:1;stroke:none;stroke-width:0.21603075;stroke-opacity:1" />
    <rect
       transform="matrix(-0.5,0.8660254,-0.5,-0.8660254,0,0)"
       rx="2.4494829"
       ry="2.4494829"
       y="-280.47192"
       x="-57.529793"
       height="17.999943"
       width="17.999945"
       id="rect1214"
       style="fill:#0080ff;fill-opacity:1;stroke:none;stroke-width:0.21603075;stroke-opacity:1" />
    <rect
       style="fill:#0066cc;fill-opacity:1;stroke:none;stroke-width:0.21603075;stroke-opacity:1"
       id="rect1216"
       width="17.999945"
       height="17.999943"
       x="-320.47205"
       y="-221.94655"
       ry="2.4494829"
       rx="2.4494829"
       transform="matrix(-1,0,0.5,-0.8660254,0,0)" />
    <rect
       transform="matrix(-1,0,0.5,-0.8660254,0,0)"
       rx="2.4494829"
       ry="2.4494829"
       y="-221.94655"
       x="-260.47198"
       height="17.999943"
       width="17.999945"
       id="rect1218"
       style="fill:#0066cc;fill-opacity:1;stroke:none;stroke-width:0.21603075;stroke-opacity:1" />
    <path
       sodipodi:nodetypes="cccccccc"
       inkscape:connector-curvature="0"
       id="path1220"
       d="m 200.25505,207.16814 c 0.50675,-0.0275 0.96525,-0.30933 1.2186,-0.74907 l 5.89089,-10.22852 c 0.57605,-1.00065 -0.14693,-2.24968 -1.30153,-2.24858 l -11.80345,0.0127 c -1.15455,0.001 -1.87475,1.252 -1.29659,2.25136 l 5.91256,10.21582 c 0.28282,0.48849 0.81589,0.77687 1.37952,0.74629 z"
       style="color:#000000;font-style:normal;font-variant:normal;font-weight:normal;font-stretch:normal;font-size:medium;line-height:normal;font-family:sans-serif;font-variant-ligatures:normal;font-variant-position:normal;font-variant-caps:normal;font-variant-numeric:normal;font-variant-alternates:normal;font-feature-settings:normal;text-indent:0;text-align:start;text-decoration:none;text-decoration-line:none;text-decoration-style:solid;text-decoration-color:#000000;letter-spacing:normal;word-spacing:normal;text-transform:none;writing-mode:lr-tb;direction:ltr;text-orientation:mixed;dominant-baseline:auto;baseline-shift:baseline;text-anchor:start;white-space:normal;shape-padding:0;clip-rule:nonzero;display:inline;overflow:visible;visibility:visible;opacity:1;isolation:auto;mix-blend-mode:normal;color-interpolation:sRGB;color-interpolation-filters:linearRGB;solid-color:#000000;solid-opacity:1;vector-effect:none;fill:#0066cc;fill-opacity:1;fill-rule:nonzero;stroke:none;stroke-width:2.99999142;stroke-linecap:round;stroke-linejoin:round;stroke-miterlimit:4;stroke-dasharray:none;stroke-dashoffset:0;stroke-opacity:1;color-rendering:auto;image-rendering:auto;shape-rendering:auto;text-rendering:auto;enable-background:accumulate" />
    <path
       style="color:#000000;font-style:normal;font-variant:normal;font-weight:normal;font-stretch:normal;font-size:medium;line-height:normal;font-family:sans-serif;font-variant-ligatures:normal;font-variant-position:normal;font-variant-caps:normal;font-variant-numeric:normal;font-variant-alternates:normal;font-feature-settings:normal;text-indent:0;text-align:start;text-decoration:none;text-decoration-line:none;text-decoration-style:solid;text-decoration-color:#000000;letter-spacing:normal;word-spacing:normal;text-transform:none;writing-mode:lr-tb;direction:ltr;text-orientation:mixed;dominant-baseline:auto;baseline-shift:baseline;text-anchor:start;white-space:normal;shape-padding:0;clip-rule:nonzero;display:inline;overflow:visible;visibility:visible;opacity:1;isolation:auto;mix-blend-mode:normal;color-interpolation:sRGB;color-interpolation-filters:linearRGB;solid-color:#000000;solid-opacity:1;vector-effect:none;fill:#0066cc;fill-opacity:1;fill-rule:nonzero;stroke:none;stroke-width:2.99999142;stroke-linecap:round;stroke-linejoin:round;stroke-miterlimit:4;stroke-dasharray:none;stroke-dashoffset:0;stroke-opacity:1;color-rendering:auto;image-rendering:auto;shape-rendering:auto;text-rendering:auto;enable-background:accumulate"
       d="m 180.25511,207.16814 c 0.50675,-0.0275 0.96525,-0.30933 1.2186,-0.74907 l 5.89089,-10.22852 c 0.57605,-1.00065 -0.14693,-2.24968 -1.30154,-2.24858 l -11.80344,0.0127 c -1.15455,0.001 -1.87475,1.252 -1.29659,2.25136 l 5.91255,10.21582 c 0.28282,0.48849 0.8159,0.77687 1.37953,0.74629 z"
       id="path1222"
       inkscape:connector-curvature="0"
       sodipodi:nodetypes="cccccccc" />
    <path
       style="color:#000000;font-style:normal;font-variant:normal;font-weight:normal;font-stretch:normal;font-size:medium;line-height:normal;font-family:sans-serif;font-variant-ligatures:normal;font-variant-position:normal;font-variant-caps:normal;font-variant-numeric:normal;font-variant-alternates:normal;font-feature-settings:normal;text-indent:0;text-align:start;text-decoration:none;text-decoration-line:none;text-decoration-style:solid;text-decoration-color:#000000;letter-spacing:normal;word-spacing:normal;text-transform:none;writing-mode:lr-tb;direction:ltr;text-orientation:mixed;dominant-baseline:auto;baseline-shift:baseline;text-anchor:start;white-space:normal;shape-padding:0;clip-rule:nonzero;display:inline;overflow:visible;visibility:visible;opacity:1;isolation:auto;mix-blend-mode:normal;color-interpolation:sRGB;color-interpolation-filters:linearRGB;solid-color:#000000;solid-opacity:1;vector-effect:none;fill:#004d99;fill-opacity:1;fill-rule:nonzero;stroke:none;stroke-width:2.99999142;stroke-linecap:round;stroke-linejoin:round;stroke-miterlimit:4;stroke-dasharray:none;stroke-dashoffset:0;stroke-opacity:1;color-rendering:auto;image-rendering:auto;shape-rendering:auto;text-rendering:auto;enable-background:accumulate"
       d="m 182.67774,243.49035 c 0.27719,0.4251 0.75052,0.68126 1.25802,0.6808 l 11.80361,-0.0126 c 1.1546,-0.001 1.87481,-1.25209 1.29655,-2.25145 l -5.91272,-10.21574 c -0.57814,-0.99936 -2.02164,-0.99757 -2.59802,0.003 l -5.8909,10.22834 c -0.28163,0.48917 -0.26483,1.09502 0.0435,1.56785 z"
       id="path1224"
       inkscape:connector-curvature="0"
       sodipodi:nodetypes="cccccccc" />
  </g>
</svg>
